<svg width="32" height="32" viewBox="0 0 512 512" fill="none" xmlns="http://www.w3.org/2000/svg">
  <rect width="512" height="512" rx="128" fill="#000000"/>
  <!-- Creor neural/molecule logo - white on black -->
  <g transform="translate(256,256) scale(0.65)" stroke="white" stroke-width="12" fill="white">
    <!-- Center node -->
    <circle cx="0" cy="0" r="22" />
    <!-- Top -->
    <line x1="0" y1="-22" x2="0" y2="-90" stroke-width="10" />
    <circle cx="0" cy="-110" r="20" />
    <!-- Top-right -->
    <line x1="15" y1="-15" x2="70" y2="-70" stroke-width="10" />
    <circle cx="85" cy="-85" r="20" />
    <!-- Right -->
    <line x1="22" y1="0" x2="100" y2="0" stroke-width="10" />
    <circle cx="120" cy="0" r="20" />
    <!-- Bottom-right -->
    <line x1="15" y1="15" x2="80" y2="80" stroke-width="10" />
    <circle cx="100" cy="100" r="24" />
    <!-- Bottom -->
    <line x1="0" y1="22" x2="-20" y2="110" stroke-width="10" />
    <circle cx="-25" cy="130" r="22" />
    <!-- Bottom-left -->
    <line x1="-15" y1="15" x2="-90" y2="60" stroke-width="10" />
    <circle cx="-110" cy="72" r="18" />
    <!-- Left -->
    <line x1="-22" y1="-5" x2="-100" y2="-30" stroke-width="10" />
    <circle cx="-120" cy="-38" r="20" />
    <!-- Top-left upper -->
    <line x1="-15" y1="-15" x2="-60" y2="-75" stroke-width="10" />
    <circle cx="-72" cy="-92" r="16" />
    <!-- Top-left lower branch -->
    <line x1="-22" y1="0" x2="-85" y2="15" stroke-width="8" />
    <circle cx="-105" cy="20" r="14" />
  </g>
</svg>
